<svg width="72" height="72" viewBox="0 0 72 72" fill="none" xmlns="http://www.w3.org/2000/svg">
<rect width="72" height="72" rx="36" fill="white"/>
<path fill-rule="evenodd" clip-rule="evenodd" d="M26.4955 22.1175C25.5776 22.5579 25.7905 23.6762 26.3904 24.2761L32.1143 30L29.9999 32.1144L24.2761 26.3905C23.6761 25.7905 22.5458 25.5996 22.1122 26.5066C21.3141 28.1759 21.0257 30.055 21.3007 31.9049C21.6414 34.1971 22.8227 36.2805 24.6147 37.7499C26.4066 39.2192 28.6811 39.9693 30.9956 39.8544C31.8539 39.8117 32.6949 39.6513 33.497 39.3827L43.8382 49.7239C45.4003 51.286 47.9329 51.286 49.495 49.7239L49.7238 49.4951C51.2859 47.9329 51.2859 45.4004 49.7238 43.8383L39.3826 33.4971C39.6526 32.6911 39.8134 31.8459 39.855 30.9833C39.967 28.6687 39.2138 26.3952 37.7421 24.6052C36.2703 22.8151 34.1854 21.6366 31.8928 21.2989C30.0425 21.0263 28.1637 21.3172 26.4955 22.1175ZM36.1259 34.0116C36.7141 33.066 37.0573 31.9793 37.1119 30.8507C37.1909 29.2171 36.6594 27.6126 35.6207 26.3493C34.5821 25.086 33.1105 24.2543 31.4925 24.0159C30.9495 23.9359 30.4029 23.9247 29.865 23.9795L33.9999 28.1144C35.0414 29.1558 35.0413 30.8442 33.9999 31.8856L31.8855 34C30.8441 35.0413 29.1557 35.0413 28.1143 34L23.9795 29.8652C23.9244 30.4059 23.936 30.9553 24.0172 31.5011C24.2577 33.1188 25.0913 34.5892 26.356 35.6261C27.6207 36.6632 29.2259 37.1925 30.8594 37.1115C31.9861 37.0555 33.0708 36.7117 34.0146 36.124L35.9927 38.1021L35.9898 38.1043L45.7238 47.8383C46.2445 48.3589 47.0887 48.3589 47.6094 47.8383L47.8382 47.6095C48.3589 47.0888 48.3589 46.2445 47.8382 45.7239L36.1259 34.0116Z" fill="#D0A044"/>
</svg>
